<?xml version="1.0" encoding="UTF-8"?>
<svg id="Layer_1" data-name="Layer 1" xmlns="http://www.w3.org/2000/svg" viewBox="0 0 1187.48 248.79">
  <defs>
    <style>
      .cls-1 {
        fill: #f9f9f9;
      }

      .cls-2 {
        fill: #00b7ff;
      }
    </style>
  </defs>
  <g>
    <path class="cls-1" d="M399.88,54.72h49.7V243.79h-44.3l-2.16-14.32c-11.34,12.96-29.17,17.56-44.03,16.75-39.16-2.43-61.04-27.01-61.04-69.14s25.93-69.68,64.82-69.68c17.02,0,29.71,5.4,37,14.32V54.72Zm-52.4,122.35c0,18.64,11.88,29.17,26.74,29.17,16.75,0,26.74-13.78,26.74-27.82,0-16.21-9.18-30.79-26.74-30.79-14.85,0-26.74,10.8-26.74,29.44Z"/>
    <path class="cls-1" d="M503.86,50.94c13.77,0,27.82,8.37,27.82,25.12s-14.04,24.85-27.82,24.85-28.09-8.37-28.09-24.85,14.04-25.12,28.09-25.12Zm24.85,192.85V112.52h-49.97V243.79h49.97Z"/>
    <path class="cls-1" d="M605.96,110.36v73.74c0,16.48,9.45,22.15,18.64,22.15,11.88,0,22.96-7.29,22.96-24.85V110.36h49.16V243.79h-44.03l-2.16-14.58c-11.34,13.23-28.09,18.1-42.13,17.83-28.09-.27-52.13-15.12-52.13-62.66V110.36h49.7Z"/>
    <path class="cls-1" d="M787.2,72.55v38.62h29.98v38.08h-30.25v43.75c.27,9.45,5.67,12.96,13.23,12.96,4.86,0,10.53-1.89,14.58-4.59l10.8,36.73c-11.34,6.48-24.58,8.91-38.35,8.91-26.47,0-50.24-12.15-49.43-54.02v-43.75h-21.34v-38.08h21.34v-33.22l49.43-5.4Z"/>
    <path class="cls-1" d="M887.13,110.36l2.97,14.59c7.02-12.42,19.45-17.83,32.41-17.83s26.47,5.13,35.11,14.32l-19.99,35.92c-8.1-6.48-14.04-8.1-22.42-8.1-12.42,0-22.96,7.56-22.96,25.12v69.42h-49.7V110.36h44.57Z"/>
    <path class="cls-1" d="M995.17,50.94c13.77,0,27.82,8.37,27.82,25.12s-14.05,24.85-27.82,24.85-28.09-8.37-28.09-24.85,14.04-25.12,28.09-25.12Zm24.85,192.85V112.52h-49.97V243.79h49.97Z"/>
    <path class="cls-1" d="M1111.04,206.24l-12.96,22.69-8.64,14.86h-54.83l44.84-66.98-40.51-64.01v-2.43h53.48l9.18,16.21,9.45,18.91,9.45-18.64,9.18-16.48h53.48v2.43l-40.24,63.74,44.57,67.25h-54.83l-8.64-14.86-12.96-22.69Z"/>
  </g>
  <path class="cls-2" d="M249.35,144.35c-6.88,0-13.48-2.75-18.33-7.64l-68.28-68.84c-3.04-3.06-7.97-3.08-11.03-.05,0,0-45.44,45.07-69.61,69.04-4.83,4.79-11.36,7.48-18.17,7.48H1.24c.12-.14,.25-.28,.38-.41L139.21,7.49c10.12-10.04,26.47-9.97,36.5,.15l91.96,92.73c16.16,16.29,4.62,43.99-18.33,43.99h0Z"/>
  <path class="cls-2" d="M248.1,248.79c-6.88,0-13.48-2.75-18.33-7.64l-68.28-68.84c-3.04-3.06-7.97-3.08-11.03-.05,0,0-45.44,45.07-69.61,69.04-4.83,4.79-11.36,7.48-18.17,7.48H0c.12-.14,.25-.28,.38-.41L137.96,111.92c10.12-10.04,26.47-9.97,36.5,.15l91.96,92.73c16.16,16.29,4.62,43.99-18.33,43.99h0Z"/>
</svg>